<?xml version="1.0" encoding="UTF-8" standalone="no"?>
<!-- Created with Inkscape (http://www.inkscape.org/) -->

<svg
   xmlns:dc="http://purl.org/dc/elements/1.1/"
   xmlns:cc="http://creativecommons.org/ns#"
   xmlns:rdf="http://www.w3.org/1999/02/22-rdf-syntax-ns#"
   xmlns:svg="http://www.w3.org/2000/svg"
   xmlns="http://www.w3.org/2000/svg"
   xmlns:sodipodi="http://sodipodi.sourceforge.net/DTD/sodipodi-0.dtd"
   xmlns:inkscape="http://www.inkscape.org/namespaces/inkscape"
   version="1.1"
   id="svg4504"
   width="2048"
   height="2048"
   viewBox="0 0 2048 2048"
   sodipodi:docname="CIAB.svg"
   inkscape:version="0.92.3 (2405546, 2018-03-11)">
  <metadata
     id="metadata4510">
    <rdf:RDF>
      <cc:Work
         rdf:about="">
        <dc:format>image/svg+xml</dc:format>
        <dc:type
           rdf:resource="http://purl.org/dc/dcmitype/StillImage" />
        <dc:title />
      </cc:Work>
    </rdf:RDF>
  </metadata>
  <defs
     id="defs4508" />
  <sodipodi:namedview
     pagecolor="#ffffff"
     bordercolor="#666666"
     borderopacity="1"
     objecttolerance="10"
     gridtolerance="10"
     guidetolerance="10"
     inkscape:pageopacity="0"
     inkscape:pageshadow="2"
     inkscape:window-width="1366"
     inkscape:window-height="715"
     id="namedview4506"
     showgrid="false"
     inkscape:zoom="0.11313708"
     inkscape:cx="-615.09914"
     inkscape:cy="461.85416"
     inkscape:window-x="-8"
     inkscape:window-y="-8"
     inkscape:window-maximized="1"
     inkscape:current-layer="svg4504" />
  <g
     id="g4514"
     transform="translate(-16.5,91.5)"
     style="fill:#000000">
    <path
       style="fill:#000000"
       d="M 1663,1640.5 V 1549 h 85.5 85.5 V 841 133 H 1126 418 V 224.5 316 H 332.5 247 v 708 708 h 708 708 z M 301,1024 V 370 H 359.5 418 V 959.5 1549 h 595.5 595.5 v 64.5 64.5 H 955 301 Z M 472.24912,932.75087 472.5,370.5 l 568.2509,-0.25087 568.2509,-0.25088 -0.2509,562.25088 -0.2509,562.25087 -568.2509,0.2509 -568.25087,0.2508 z M 1285,1422.8693 c 36.885,-9.4184 60.772,-43.4969 56.0883,-80.0187 -3.5272,-27.5035 -21.012,-49.7967 -46.7795,-59.6441 -11.2663,-4.3056 -19.9929,-5.5693 -34.443,-4.9877 -10.4412,0.4202 -13.8444,0.9959 -21.8658,3.6986 -36.7278,12.3752 -57.0524,47.267 -49.4398,84.8748 0.8907,4.3999 3.5217,11.7849 6.1306,17.2078 3.9383,8.1862 5.8315,10.7447 13.6898,18.5 10.3779,10.242 16.9883,14.4867 29.0186,18.6333 14.8676,5.1247 31.8976,5.7457 47.6008,1.736 z m -31.6646,-26.2919 c -23.5937,-5.722 -39.5115,-29.4105 -35.3419,-52.5949 3.5437,-19.704 18.6843,-34.4201 39.1819,-38.0832 23.1657,-4.1399 47.424,12.049 52.7641,35.2125 7.628,33.0882 -23.4214,63.5131 -56.6041,55.4656 z m -670.16414,26.7676 c 1.73878,-1.5736 1.82874,-5.1302 1.82874,-72.3 0,-53.6128 -0.28932,-70.9343 -1.2,-71.845 -0.79968,-0.7997 -5.19361,-1.2 -13.17126,-1.2 -9.73606,0 -12.31271,0.309 -13.8,1.655 -1.73848,1.5733 -1.82874,5.1106 -1.82874,71.6712 0,63.7476 0.14817,70.18 1.65499,71.8451 1.42081,1.5699 3.28447,1.8287 13.17126,1.8287 9.31268,0 11.86619,-0.3167 13.34501,-1.655 z m 66.16344,-0.1623 c 1.46646,-1.6205 1.67287,-6.6955 1.90498,-46.8386 l 0.26032,-45.0212 34.82269,46.8385 34.82269,46.8386 h 12.09857 c 9.85452,0 12.43776,-0.307 13.92731,-1.655 1.73848,-1.5733 1.82874,-5.1106 1.82874,-71.6712 0,-63.7476 -0.14817,-70.18 -1.65499,-71.8451 C 745.92148,1278.2558 744.05511,1278 734,1278 c -10.0281,0 -11.92383,0.2583 -13.33459,1.8172 -1.46602,1.62 -1.67284,6.6806 -1.90499,46.6148 l -0.26042,44.7976 -34.5494,-46.3648 -34.54939,-46.3648 -12.33665,-0.2819 c -10.43322,-0.2384 -12.62424,-0.022 -14.2006,1.405 -1.7848,1.6152 -1.86396,4.6603 -1.86396,71.7031 0,63.7476 0.14817,70.18 1.65499,71.8451 1.42353,1.5729 3.2899,1.8287 13.34501,1.8287 10.02838,0 11.9238,-0.2583 13.3347,-1.8173 z m 210.84403,-13.9327 6.59978,-15.75 33.36074,-0.2336 33.36075,-0.2335 6.57654,15.7335 6.57654,15.7336 13.6321,0.278 c 21.11108,0.4304 22.69336,8.8676 -14.14586,-75.4297 l -30.96184,-70.8483 -14.33874,-0.2511 -14.33874,-0.251 -31.31654,71.075 C 817.99809,1433.4677 819.65655,1425 840.31253,1425 h 13.26642 z m 18.99795,-44.5683 c 0.67127,-2.7369 20.34707,-48.6534 20.85452,-48.6672 0.29217,-0.01 5.30182,11.2355 11.13256,24.9855 l 10.60136,25 h -21.45588 c -17.25408,0 -21.39257,-0.2582 -21.13256,-1.3183 z m 258.99242,57.5343 c 4.218,-1.151 9.5849,-3.0702 11.9266,-4.2648 6.3704,-3.25 14.5386,-11.5071 17.6495,-17.8417 2.5417,-5.1756 2.7548,-6.5377 2.7548,-17.6095 0,-11.7694 -0.066,-12.1215 -3.4271,-18.3209 -3.5137,-6.4806 -10.0396,-13.1114 -15.1149,-15.358 l -2.8588,-1.2654 5.3894,-4.8034 c 3.3071,-2.9476 6.4754,-7.0152 8.2004,-10.5279 2.5123,-5.1162 2.811,-6.787 2.811,-15.7244 0,-8.9028 -0.304,-10.619 -2.7705,-15.6415 -4.7076,-9.5861 -14.2755,-16.7402 -27.4627,-20.5344 -4.763,-1.3704 -12.1768,-1.7319 -42.5937,-2.077 -33.9423,-0.3851 -36.9776,-0.2815 -38.75,1.3225 -1.8626,1.6856 -1.9231,3.9441 -1.9231,71.7566 0,65.1735 0.1206,70.1495 1.7431,71.9424 1.6759,1.8518 3.1902,1.9091 39.25,1.4831 34.1226,-0.403 38.1989,-0.6318 45.176,-2.5357 z M 1082,1380.0832 V 1363 l 16.75,0.01 c 19.0561,0.01 28.0286,1.1559 33.6592,4.3041 5.8519,3.2721 8.0908,6.8726 8.0908,13.0116 0,6.5425 -2.7322,10.6276 -9.257,13.8409 -4.4628,2.1978 -6.0576,2.3555 -26.993,2.669 l -22.25,0.3331 v -17.0831 z m 0,-59.0271 V 1306 l 20.25,0.022 c 22.3377,0.024 26.1271,0.8281 30.5786,6.4872 2.8295,3.5972 2.973,11.6641 0.2857,16.0708 -3.6835,6.0406 -7.231,6.8848 -30.3643,7.2261 l -20.75,0.3062 z M 1400.5,1400 c 9.8137,-13.75 18.1128,-25 18.4424,-25 0.3296,0 8.6178,11.25 18.4182,25 l 17.8189,25 h 14.8783 14.8783 l 1.3816,-2.6369 c 1.3471,-2.571 0.7605,-3.5217 -23.4871,-38.0647 -14.7476,-21.0093 -24.5787,-35.9102 -24.1561,-36.6131 0.392,-0.6519 10.5837,-15.3294 22.6483,-32.6167 19.746,-28.2937 21.8457,-31.6877 21.0336,-34 l -0.9022,-2.5686 -14.9771,-0.2333 -14.9771,-0.2334 -15.5,22.0566 c -8.525,12.1312 -15.9542,22.4389 -16.5094,22.9062 -0.6298,0.53 -7.0228,-7.7632 -17,-22.0529 l -15.9906,-22.9023 -14.9771,0.2295 -14.9771,0.2296 -0.8866,2.5244 c -0.7916,2.2539 1.5339,6.0046 21.701,35 12.4231,17.8616 22.7118,32.7722 22.8637,33.1346 0.1518,0.3625 -10.5239,15.8535 -23.7239,34.4245 -13.2,18.571 -24.3422,34.3304 -24.7605,35.0209 -0.4182,0.6905 -0.2335,2.412 0.4105,3.8255 l 1.171,2.5701 h 14.6679 14.6679 z M 640.63565,1247.9543 c 11.85363,-3.0134 29.14222,-12.759 36.57767,-20.619 l 2.71332,-2.8682 -7.983,-8.9835 c -4.39064,-4.941 -8.87795,-9.1279 -9.9718,-9.3043 -1.16454,-0.1877 -3.66201,1.1116 -6.02598,3.135 -24.41409,20.8976 -61.25808,14.8463 -74.97779,-12.3143 -11.49586,-22.7581 -2.15127,-51.2693 20.26706,-61.8367 18.41068,-8.6783 36.63135,-6.1683 53.20249,7.3291 3.04377,2.4792 6.39136,4.5076 7.43909,4.5076 1.20545,0 4.75462,-3.543 9.66537,-9.6485 6.10743,-7.5933 7.54936,-9.9895 6.76958,-11.25 -2.03236,-3.285 -12.93851,-11.2009 -20.74246,-15.0553 -12.63905,-6.2423 -23.3332,-8.3696 -39.0692,-7.7719 -9.56885,0.3635 -14.84754,1.0786 -20,2.7096 -29.09931,9.211 -48.88141,32.3961 -52.50218,61.5336 -1.85469,14.9254 0.91154,29.6637 8.24448,43.9259 5.0284,9.78 17.81802,23.0699 27.7577,28.8434 16.86449,9.7959 38.91899,12.6799 58.63565,7.6675 z m 304.57089,2.0317 c 25.18216,-2.8855 42.57854,-16.1961 50.5244,-38.6582 L 998.5,1203.5 l 0.30283,-48.8339 c 0.22527,-36.3279 0.002,-49.1965 -0.87245,-50.25 -0.89644,-1.0801 -4.07507,-1.4161 -13.39784,-1.4161 -10.46537,0 -12.45499,0.2568 -13.83921,1.7864 -1.43094,1.5811 -1.64978,7.124 -1.90499,48.25 L 968.5,1199.5 l -2.58301,5.5061 c -3.28162,6.9953 -7.93532,11.6433 -14.9109,14.8928 -4.6809,2.1806 -6.92984,2.5677 -15.00609,2.583 -12.7019,0.024 -18.71961,-2.0711 -25.5417,-8.8932 -8.98671,-8.9867 -8.85648,-8.1251 -9.22959,-61.0626 -0.28566,-40.5307 -0.51434,-46.1842 -1.93136,-47.75 -2.3014,-2.543 -23.68431,-2.6409 -26.46861,-0.1211 -1.71976,1.5564 -1.82874,4.3221 -1.82874,46.412 0,50.3917 0.48105,55.3678 6.5436,67.6873 8.51287,17.2988 25.05882,28.3818 46.51698,31.1588 9.15844,1.1852 11.37204,1.1928 21.14596,0.073 z M 1132,1247.3809 c 9.9989,-2.5079 22.9678,-8.1986 30.5094,-13.3874 l 4.4906,-3.0896 v -26.6232 c 0,-23.3699 -0.2022,-26.8467 -1.655,-28.452 -1.3935,-1.5397 -3.2376,-1.8287 -11.6712,-1.8287 -14.3289,0 -13.6738,-1.0525 -13.6738,21.9698 v 18.6598 l -3.75,1.8075 c -12.5342,6.0416 -25.2631,7.8297 -36.647,5.1482 -22.0734,-5.1996 -36.603,-23.3428 -36.603,-45.7063 0,-12.5558 4.9209,-23.731 14.3953,-32.6916 17.5261,-16.5754 45.0405,-17.2752 66.7243,-1.6969 7.355,5.284 8.2614,4.9542 16.7066,-6.0794 4.0364,-5.2735 7.0893,-10.1889 6.7987,-10.9463 -1.5332,-3.9954 -18.6729,-13.7901 -31.6249,-18.0725 -7.9561,-2.6305 -9.5879,-2.8121 -25.5,-2.8374 -16.6734,-0.027 -17.1821,0.036 -26.4791,3.2667 -20.4544,7.1074 -34.1628,18.5302 -43.4712,36.2235 -8.0583,15.317 -10.2749,35.8312 -5.6616,52.3983 8.2435,29.6042 33.0743,50.7934 63.9221,54.5477 9.4917,1.1552 22.1453,0.1601 33.1898,-2.6102 z M 731.14298,1234 l 6.64298,-15.5 h 33.32234 33.32233 l 6.56792,15.5 6.56791,15.5 13.67541,0.278 c 13.45247,0.2734 13.70089,0.239 15.2395,-2.1092 1.50614,-2.2987 0.41576,-5.0144 -29.4221,-73.278 l -30.98621,-70.8908 -14.28653,-0.2694 -14.28653,-0.2695 -31.36719,71.1162 c -28.98144,65.7072 -31.26827,71.3011 -30.06656,73.5465 1.2914,2.413 1.39701,2.4283 14.86719,2.1532 L 724.5,1249.5 Z m 18.8542,-43.75 c -0.005,-1.2573 20.46715,-49.2482 21.00282,-49.2356 0.54496,0.013 21.0274,48.0112 21.01041,49.2356 -0.006,0.4125 -9.46041,0.75 -21.01041,0.75 -11.55,0 -21.00127,-0.3375 -21.00282,-0.75 z m 489.17412,58.095 c 1.6867,-1.5264 1.8287,-3.7786 1.8287,-29 V 1192 h 34 34 v 27.1713 c 0,23.8798 0.2005,27.3927 1.655,29 1.4208,1.5699 3.2845,1.8287 13.1712,1.8287 9.3127,0 11.8662,-0.3167 13.3451,-1.655 1.7384,-1.5733 1.8287,-5.1106 1.8287,-71.6712 0,-63.7476 -0.1482,-70.18 -1.655,-71.8451 -1.4208,-1.5699 -3.2845,-1.8287 -13.1712,-1.8287 -9.3127,0 -11.8662,0.3167 -13.3451,1.655 -1.6911,1.5304 -1.8287,3.8254 -1.8287,30.5 V 1164 h -34 -34 v -29.3 c 0,-21.4556 -0.3213,-29.6213 -1.2,-30.5 -0.7997,-0.7997 -5.1936,-1.2 -13.1713,-1.2 -9.736,0 -12.3127,0.309 -13.8,1.655 -1.7384,1.5733 -1.8287,5.1106 -1.8287,71.6712 0,63.7476 0.1482,70.18 1.655,71.8451 1.4208,1.5699 3.2845,1.8287 13.1712,1.8287 9.3127,0 11.8662,-0.3167 13.3451,-1.655 z M 1442.8,1248.8 c 0.9059,-0.9059 1.2,-15.4889 1.2,-59.5 V 1131 h 20.6713 c 25.7296,0 24.3287,0.7961 24.3287,-13.8262 0,-8.3822 -0.3359,-10.8874 -1.655,-12.3451 -1.5658,-1.7302 -4.6736,-1.8287 -57.6712,-1.8287 -50.7205,0 -56.1892,0.1565 -57.8451,1.655 -1.5508,1.4034 -1.8287,3.2532 -1.8287,12.1712 0,15.004 -1.3856,14.1738 23.655,14.1738 H 1414 v 57.6713 c 0,52.2604 0.1553,57.8428 1.655,59.5 1.4303,1.5804 3.3041,1.8287 13.8,1.8287 8.1128,0 12.5434,-0.3984 13.345,-1.2 z M 1663,905.5 V 316 H 1067.5 472 V 251.5 187 h 654 654 v 654 654 h -58.5 -58.5 z"
       id="path4530"
       inkscape:connector-curvature="0"
       sodipodi:nodetypes="cccccccccccccccccccccccccccccccccccccccccccccscccccscccscscscsccscccscscscscccscscsccccccccscccssccccscscsccscccccscsscsccsccccsccccccccccccccsscccccccccccccsccccccsccccccccccccsscscccccsscccccscscscscccsccscccccccscsscccscccccccccccccccccccscccscccccccsccscccscscscscscccssscscscszcsscscsscscssccccccccccccc" />
    <path
       style="fill:#000000"
       d="m 1296,1385.6224 c 0,-0.2076 0.7875,-0.9951 1.75,-1.75 1.5861,-1.2438 1.6214,-1.2085 0.3776,0.3776 -1.3064,1.6657 -2.1276,2.1955 -2.1276,1.3724 z M 1207.5,1300 c 0.9955,-1.1 2.035,-2 2.31,-2 0.275,0 -0.3145,0.9 -1.31,2 -0.9955,1.1 -2.035,2 -2.31,2 -0.275,0 0.3145,-0.9 1.31,-2 z m -624.62756,-20.75 c -1.24387,-1.5861 -1.2085,-1.6214 0.37756,-0.3776 0.9625,0.7549 1.75,1.5424 1.75,1.75 0,0.8231 -0.82119,0.2933 -2.12756,-1.3724 z M 1441,1249.6224 c 0,-0.2076 0.7875,-0.9951 1.75,-1.75 1.5861,-1.2438 1.6214,-1.2085 0.3776,0.3776 -1.3064,1.6657 -2.1276,2.1955 -2.1276,1.3724 z M 1075.5,1144 c 0.9955,-1.1 2.035,-2 2.31,-2 0.275,0 -0.3145,0.9 -1.31,2 -0.9955,1.1 -2.035,2 -2.31,2 -0.275,0 0.3145,-0.9 1.31,-2 z m -78.62756,-39.75 c -1.24387,-1.5861 -1.2085,-1.6214 0.37756,-0.3776 1.66575,1.3064 2.19548,2.1276 1.37244,2.1276 -0.20765,0 -0.99515,-0.7875 -1.75,-1.75 z m 241.99996,0 c -1.2438,-1.5861 -1.2085,-1.6214 0.3776,-0.3776 0.9625,0.7549 1.75,1.5424 1.75,1.75 0,0.8231 -0.8212,0.2933 -2.1276,-1.3724 z"
       id="path4528"
       inkscape:connector-curvature="0"
       sodipodi:nodetypes="sccssssssccscsccssssssccscccsc" />
    <path
       style="fill:#000000"
       d="m 1261.75,1425.2943 c 1.2375,-0.2384 3.2625,-0.2384 4.5,0 1.2375,0.2383 0.225,0.4333 -2.25,0.4333 -2.475,0 -3.4875,-0.195 -2.25,-0.4333 z m -696.96081,-1.0357 c 3.45905,-0.1958 8.85905,-0.1942 12,0 3.14094,0.1978 0.31081,0.358 -6.28919,0.356 -6.6,0 -9.16987,-0.1638 -5.71081,-0.3596 z m 64.96081,0 c 3.4375,-0.1953 9.0625,-0.1953 12.5,0 3.4375,0.1953 0.625,0.355 -6.25,0.355 -6.875,0 -9.6875,-0.1597 -6.25,-0.355 z m 97.54159,0 c 3.73537,-0.1929 9.58537,-0.1915 13,0 3.41462,0.1947 0.35841,0.3525 -6.79159,0.3508 -7.15,0 -9.94379,-0.1611 -6.20841,-0.354 z m 105.95841,9e-4 c 3.7125,-0.1924 9.7875,-0.1924 13.5,0 3.7125,0.1925 0.675,0.3499 -6.75,0.3499 -7.425,0 -10.4625,-0.1574 -6.75,-0.3499 z m 119.95625,0 c 3.68844,-0.1918 9.98844,-0.1931 14,0 4.01156,0.1903 0.99375,0.3473 -6.70625,0.3488 -7.7,0 -10.98219,-0.1541 -7.29375,-0.346 z m 117.97975,-0.01 c 9.1773,-0.1649 24.4773,-0.1652 34,-7e-4 9.5227,0.1645 2.014,0.2994 -16.686,0.2998 -18.7,4e-4 -26.4913,-0.1342 -17.314,-0.2991 z m 289.564,0.01 c 3.9875,-0.1898 10.5125,-0.1898 14.5,0 3.9875,0.1898 0.725,0.3451 -7.25,0.3451 -7.975,0 -11.2375,-0.1553 -7.25,-0.3451 z m 101.5,-8e-4 c 4.2625,-0.1875 11.2375,-0.1875 15.5,0 4.2625,0.1874 0.775,0.3408 -7.75,0.3408 -8.525,0 -12.0125,-0.1534 -7.75,-0.3408 z M 555.47358,1351 c 0,-38.775 0.1242,-54.6375 0.276,-35.25 0.1518,19.3875 0.1518,51.1125 0,70.5 -0.1518,19.3875 -0.276,3.525 -0.276,-35.25 z m 163.33544,21.25 c -0.16996,-0.4125 -0.0771,-21.225 0.2063,-46.25 l 0.51531,-45.5 0.23469,46.25 c 0.12907,25.4375 0.0362,46.25 -0.2063,46.25 -0.24254,0 -0.58004,-0.3375 -0.75,-0.75 z m 400.00348,-8.9331 c 0.7219,-0.2889 1.5844,-0.2534 1.9167,0.079 0.3323,0.3323 -0.2584,0.5687 -1.3125,0.5253 -1.165,-0.048 -1.4019,-0.285 -0.6042,-0.6042 z M 1341.286,1351.5 c 0.01,-2.75 0.2017,-3.7563 0.4316,-2.2363 0.2298,1.5201 0.2237,3.7701 -0.014,5 -0.2373,1.23 -0.4254,-0.014 -0.4179,-2.7637 z m -206.0911,-31 c 0.02,-1.65 0.2445,-2.2039 0.4981,-1.231 0.2535,0.973 0.2369,2.323 -0.037,3 -0.2739,0.6771 -0.4813,-0.119 -0.461,-1.769 z m -44.4449,-15.2451 c 5.0875,-0.1815 13.4125,-0.1815 18.5,0 5.0875,0.1815 0.925,0.33 -9.25,0.33 -10.175,0 -14.3375,-0.1485 -9.25,-0.33 z m 29,-26.9172 c 0.6875,-0.2774 1.8125,-0.2774 2.5,0 0.6875,0.2774 0.125,0.5044 -1.25,0.5044 -1.375,0 -1.9375,-0.227 -1.25,-0.5044 z m -501,-28.0434 c 1.2375,-0.2384 3.2625,-0.2384 4.5,0 1.2375,0.2383 0.225,0.4333 -2.25,0.4333 -2.475,0 -3.4875,-0.195 -2.25,-0.4333 z m 314,0 c 1.2375,-0.2384 3.2625,-0.2384 4.5,0 1.2375,0.2383 0.225,0.4333 -2.25,0.4333 -2.475,0 -3.4875,-0.195 -2.25,-0.4333 z m 174,0 c 1.2375,-0.2384 3.2625,-0.2384 4.5,0 1.2375,0.2383 0.225,0.4333 -2.25,0.4333 -2.475,0 -3.4875,-0.195 -2.25,-0.4333 z m -402.5,-1.0359 c 3.7125,-0.1924 9.7875,-0.1924 13.5,0 3.7125,0.1925 0.675,0.3499 -6.75,0.3499 -7.425,0 -10.4625,-0.1574 -6.75,-0.3499 z m 119.95625,10e-4 c 3.68844,-0.1918 9.98844,-0.1931 14,0 4.01156,0.1903 0.99375,0.3473 -6.70625,0.3488 -7.7,0 -10.98219,-0.1541 -7.29375,-0.346 z m 396.58295,-8e-4 c 3.459,-0.1958 8.859,-0.1942 12,0 3.1409,0.1978 0.3108,0.358 -6.2892,0.356 -6.6,0 -9.1699,-0.1638 -5.7108,-0.3596 z m 96.9608,0 c 3.4375,-0.1953 9.0625,-0.1953 12.5,0 3.4375,0.1953 0.625,0.355 -6.25,0.355 -6.875,0 -9.6875,-0.1597 -6.25,-0.355 z m 106.0392,0 c 3.459,-0.1958 8.859,-0.1942 12,0 3.1409,0.1978 0.3108,0.358 -6.2892,0.356 -6.6,0 -9.1699,-0.1638 -5.7108,-0.3596 z m -9.3209,-60.7586 c -10e-5,-31.9 0.1263,-45.0946 0.281,-29.3214 0.1546,15.7732 0.1547,41.8732 2e-4,58 -0.1545,16.1268 -0.281,3.2214 -0.2812,-28.6786 z m -753.6558,17.8169 c 0.72187,-0.2889 1.58438,-0.2534 1.91667,0.079 0.33229,0.3323 -0.25834,0.5687 -1.3125,0.5253 -1.16495,-0.048 -1.4019,-0.285 -0.60417,-0.6042 z m 596.9375,-15.0653 c 9.4875,-0.1644 25.0125,-0.1644 34.5,0 9.4875,0.1644 1.725,0.2988 -17.25,0.2988 -18.975,0 -26.7375,-0.1344 -17.25,-0.2988 z M 545.27236,1176 c 0,-2.475 0.19502,-3.4875 0.43337,-2.25 0.23836,1.2375 0.23836,3.2625 0,4.5 -0.23835,1.2375 -0.43337,0.225 -0.43337,-2.25 z m 487.00004,0 c 0,-2.475 0.195,-3.4875 0.4333,-2.25 0.2384,1.2375 0.2384,3.2625 0,4.5 -0.2383,1.2375 -0.4333,0.225 -0.4333,-2.25 z m 115.4776,-1.7372 c 2.8875,-0.202 7.6125,-0.202 10.5,0 2.8875,0.202 0.525,0.3672 -5.25,0.3672 -5.775,0 -8.1375,-0.1652 -5.25,-0.3672 z"
       id="path4526"
       inkscape:connector-curvature="0"
       sodipodi:nodetypes="ccsccccccsssscccccccsccccccssssssssccscsssssscssscccccccccccccccssssssssccscccscccscccscccccccccccsssscscccccsccccccsssssccssccsssss" />
    <path
       style="fill:#000000"
       d="m 909.40499,1213.75 -1.90499,-2.25 2.25,1.905 c 2.11444,1.7902 2.70524,2.595 1.90499,2.595 -0.18976,0 -1.20226,-1.0125 -2.25,-2.25 z M 1052,1126.6224 c 0,-0.2076 0.7875,-0.9951 1.75,-1.75 1.5861,-1.2438 1.6214,-1.2085 0.3776,0.3776 -1.3064,1.6657 -2.1276,2.1955 -2.1276,1.3724 z"
       id="path4524"
       inkscape:connector-curvature="0"
       sodipodi:nodetypes="cccscsccs" />
    <path
       style="fill:#000000"
       d="m 621.47358,1351 c 0,-38.775 0.1242,-54.6375 0.276,-35.25 0.1518,19.3875 0.1518,51.1125 0,70.5 -0.1518,19.3875 -0.276,3.525 -0.276,-35.25 z m 126.99982,0.5 c 10e-5,-38.5 0.12442,-54.1045 0.27626,-34.6767 0.15185,19.4278 0.15177,50.9278 -1.7e-4,70 -0.15195,19.0722 -0.27618,3.1767 -0.27609,-35.3233 z m 332.9694,45.2116 c -0.2719,-0.7086 -0.3583,-8.6961 -0.192,-17.75 l 0.3023,-16.4616 0.2235,17.2284 0.2234,17.2284 19.25,0.2945 19.25,0.2945 -19.2814,0.2271 c -14.975,0.1764 -19.3918,-0.061 -19.7758,-1.0613 z m 105.6361,-39.2949 c 0.048,-1.165 0.285,-1.4019 0.6042,-0.6042 0.2889,0.7219 0.2534,1.5844 -0.079,1.9167 -0.3323,0.3323 -0.5687,-0.2584 -0.5253,-1.3125 z m 124.116,-5.9167 c 0.02,-1.65 0.2445,-2.2039 0.4981,-1.231 0.2535,0.973 0.2369,2.323 -0.037,3 -0.2739,0.6771 -0.4813,-0.119 -0.461,-1.769 z m -124.116,-6.0833 c 0.048,-1.165 0.285,-1.4019 0.6042,-0.6042 0.2889,0.7219 0.2534,1.5844 -0.079,1.9167 -0.3323,0.3323 -0.5687,-0.2584 -0.5253,-1.3125 z m -105.639,-9.7127 c -0.2735,-0.7128 -0.3585,-7.8003 -0.1889,-15.75 l 0.3085,-14.454 0.2202,15.2279 0.2203,15.228 18.75,0.2955 18.75,0.2955 -18.7814,0.2265 c -14.6228,0.1764 -18.8915,-0.06 -19.2787,-1.0694 z m 83.639,-23.2873 c 0.048,-1.165 0.285,-1.4019 0.6042,-0.6042 0.2889,0.7219 0.2534,1.5844 -0.079,1.9167 -0.3323,0.3323 -0.5687,-0.2584 -0.5253,-1.3125 z M 1466.5,1279 l -15,-0.5816 14.691,-0.2092 c 8.9484,-0.1274 14.9326,0.1817 15.309,0.7908 0.3399,0.55 0.479,0.9059 0.309,0.7908 -0.1699,-0.1151 -7.059,-0.4709 -15.309,-0.7908 z m -901.71081,-0.7414 c 3.45905,-0.1958 8.85905,-0.1942 12,0 3.14094,0.1978 0.31081,0.358 -6.28919,0.356 -6.6,0 -9.16987,-0.1638 -5.71081,-0.3596 z m 65.5024,0 c 3.73537,-0.1929 9.58537,-0.1915 13,0 3.41462,0.1947 0.35841,0.3525 -6.79159,0.3508 -7.15,0 -9.94379,-0.1611 -6.20841,-0.354 z m 97.95841,0 c 3.1625,-0.1984 8.3375,-0.1984 11.5,0 3.1625,0.1985 0.575,0.3608 -5.75,0.3608 -6.325,0 -8.9125,-0.1623 -5.75,-0.3608 z m 164.95625,0 c 3.68844,-0.1918 9.98844,-0.1931 14,0 4.01156,0.1903 0.99375,0.3473 -6.70625,0.3488 -7.7,0 -10.98219,-0.1541 -7.29375,-0.346 z m 177.60675,-0.01 c 8.9721,-0.1659 23.3721,-0.1656 32,7e-4 8.6278,0.1663 1.287,0.3021 -16.313,0.3017 -17.6,-4e-4 -24.6592,-0.1365 -15.687,-0.3024 z m 293.937,0.01 c 3.9875,-0.1898 10.5125,-0.1898 14.5,0 3.9875,0.1898 0.725,0.3451 -7.25,0.3451 -7.975,0 -11.2375,-0.1553 -7.25,-0.3451 z M 1211.4734,1176.5 c 10e-5,-38.5 0.1244,-54.1045 0.2763,-34.6767 0.1518,19.4278 0.1517,50.9278 -2e-4,70 -0.152,19.0722 -0.2762,3.1767 -0.2761,-35.3233 z m 127.0002,-0.5 c 0,-38.775 0.1242,-54.6375 0.276,-35.25 0.1518,19.3875 0.1518,51.1125 0,70.5 -0.1518,19.3875 -0.276,3.525 -0.276,-35.25 z m -172.0369,28 c 0,-14.575 0.1398,-20.5375 0.3107,-13.25 0.1709,7.2875 0.1709,19.2125 0,26.5 -0.1709,7.2875 -0.3107,1.325 -0.3107,-13.25 z m -546.17295,18.2824 c 1.52006,-0.2298 3.77006,-0.2237 5,0.014 1.22994,0.2373 -0.0137,0.4254 -2.76375,0.4179 -2.75,-0.01 -3.75631,-0.2017 -2.23625,-0.4316 z m 377.8152,-26.8657 c 0.048,-1.165 0.28494,-1.4019 0.60416,-0.6042 0.28887,0.7219 0.25335,1.5844 -0.0789,1.9167 -0.33229,0.3323 -0.56864,-0.2584 -0.52522,-1.3125 z m -126.884,-2.9167 c 0.0204,-1.65 0.2445,-2.2039 0.49804,-1.231 0.25354,0.973 0.23687,2.323 -0.0371,3 -0.27393,0.6771 -0.48137,-0.119 -0.46099,-1.769 z m 98.26396,-42.5 c 0,-23.925 0.13052,-33.7125 0.29005,-21.75 0.15952,11.9625 0.15952,31.5375 0,43.5 -0.15953,11.9625 -0.29005,2.175 -0.29005,-21.75 z m -69.00132,-2.5 c 2.5e-4,-23.1 0.13143,-32.4072 0.29152,-20.6827 0.16008,11.7245 0.15988,30.6245 -4.5e-4,42 -0.16034,11.3755 -0.29131,1.7827 -0.29107,-21.3173 z m 161.82841,29 c 0.01,-2.75 0.2017,-3.7563 0.4316,-2.2363 0.2298,1.5201 0.2237,3.7701 -0.014,5 -0.2373,1.23 -0.4254,-0.014 -0.4179,-2.7637 z M 575.27236,1176 c 0,-2.475 0.19502,-3.4875 0.43337,-2.25 0.23836,1.2375 0.23836,3.2625 0,4.5 -0.23835,1.2375 -0.43337,0.225 -0.43337,-2.25 z M 1257.75,1164.2516 c 9.4875,-0.1644 25.0125,-0.1644 34.5,0 9.4875,0.1644 1.725,0.2988 -17.25,0.2988 -18.975,0 -26.7375,-0.1344 -17.25,-0.2988 z m -596.9375,-17.9347 c 0.72187,-0.2889 1.58438,-0.2534 1.91667,0.079 0.33229,0.3323 -0.25834,0.5687 -1.3125,0.5253 -1.16495,-0.048 -1.4019,-0.285 -0.60417,-0.6042 z m 722.9375,-16.0628 c 5.6375,-0.1782 14.8625,-0.1782 20.5,0 5.6375,0.1783 1.025,0.3241 -10.25,0.3241 -11.275,0 -15.8875,-0.1458 -10.25,-0.3241 z m 70.5544,-9e-4 c 5.9423,-0.1771 15.3923,-0.1764 21,0 5.6076,0.1779 0.7456,0.3228 -10.8044,0.322 -11.55,-8e-4 -16.138,-0.1464 -10.1956,-0.3235 z M 1370.37,1117 c 0,-5.775 0.1652,-8.1375 0.3672,-5.25 0.202,2.8875 0.202,7.6125 0,10.5 -0.202,2.8875 -0.3672,0.525 -0.3672,-5.25 z m 118,0 c 0,-5.775 0.1652,-8.1375 0.3672,-5.25 0.202,2.8875 0.202,7.6125 0,10.5 -0.202,2.8875 -0.3672,0.525 -0.3672,-5.25 z m -724.16375,-13.7406 c 3.68844,-0.1918 9.98844,-0.1931 14,0 4.01156,0.1903 0.99375,0.3473 -6.70625,0.3488 -7.7,0 -10.98219,-0.1541 -7.29375,-0.346 z m 115.54375,2e-4 c 3.4375,-0.1953 9.0625,-0.1953 12.5,0 3.4375,0.1953 0.625,0.355 -6.25,0.355 -6.875,0 -9.6875,-0.1597 -6.25,-0.355 z m 99.03919,0 c 3.45905,-0.1958 8.85905,-0.1942 12,0 3.14094,0.1978 0.31081,0.358 -6.28919,0.356 -6.6,0 -9.16987,-0.1638 -5.71081,-0.3596 z m 242.00001,0 c 3.459,-0.1958 8.859,-0.1942 12,0 3.1409,0.1978 0.3108,0.358 -6.2892,0.356 -6.6,0 -9.1699,-0.1638 -5.7108,-0.3596 z m 96.9608,0 c 3.4375,-0.1953 9.0625,-0.1953 12.5,0 3.4375,0.1953 0.625,0.355 -6.25,0.355 -6.875,0 -9.6875,-0.1597 -6.25,-0.355 z m 84.071,-0.01 c 15.5766,-0.155 40.7766,-0.1549 56,3e-4 15.2235,0.1552 2.479,0.282 -28.321,0.2819 -30.8,-2e-4 -43.2555,-0.1271 -27.679,-0.2822 z"
       id="path4522"
       inkscape:connector-curvature="0"
       sodipodi:nodetypes="ssssssssccccccccccccccccccccccccccccccccccccccccccccccccccccccccsccccccsssssssssccssssssssscccccccccccccccsssssssscccccsccsssssczcccccscccsccsssssssscccccssssccccccccccsssscscc" />
    <path
       style="fill:#000000"
       d="m 1155.5,1341 c 0.9955,-1.1 2.035,-2 2.31,-2 0.275,0 -0.3145,0.9 -1.31,2 -0.9955,1.1 -2.035,2 -2.31,2 -0.275,0 0.3145,-0.9 1.31,-2 z M 887.40499,1232.75 885.5,1230.5 l 2.25,1.905 c 2.11444,1.7902 2.70524,2.595 1.90499,2.595 -0.18976,0 -1.20226,-1.0125 -2.25,-2.25 z m 166.00001,-5 -1.905,-2.25 2.25,1.905 c 1.2375,1.0477 2.25,2.0602 2.25,2.25 0,0.8002 -0.8048,0.2094 -2.595,-1.905 z M 676,1227.6224 c 0,-0.2076 0.7875,-0.9951 1.75,-1.75 1.58606,-1.2438 1.62143,-1.2085 0.37756,0.3776 -1.30637,1.6657 -2.12756,2.1955 -2.12756,1.3724 z M 588.40499,1208.75 586.5,1206.5 l 2.25,1.905 c 2.11444,1.7902 2.70524,2.595 1.90499,2.595 -0.18976,0 -1.20226,-1.0125 -2.25,-2.25 z m 68,-65 -1.90499,-2.25 2.25,1.905 c 2.11444,1.7902 2.70524,2.595 1.90499,2.595 -0.18976,0 -1.20226,-1.0125 -2.25,-2.25 z M 566,1125.5 c 1.29175,-1.375 2.57363,-2.5 2.84863,-2.5 0.275,0 -0.55688,1.125 -1.84863,2.5 -1.29175,1.375 -2.57363,2.5 -2.84863,2.5 -0.275,0 0.55688,-1.125 1.84863,-2.5 z"
       id="path4520"
       inkscape:connector-curvature="0"
       sodipodi:nodetypes="ssssscccsccccscsccscccsccccscsssss" />
    <path
       style="fill:#000000"
       d="m 582,1423.6224 c 0,-0.2076 0.7875,-0.9951 1.75,-1.75 1.58606,-1.2438 1.62143,-1.2085 0.37756,0.3776 -1.30637,1.6657 -2.12756,2.1955 -2.12756,1.3724 z M 650.46092,1375.5 c 2.1e-4,-25.3 0.12996,-35.5066 0.28833,-22.6814 0.15837,12.8252 0.1582,33.5252 -3.8e-4,46 -0.15859,12.4748 -0.28816,1.9814 -0.28795,-23.3186 z m 402.01248,-24 c 10e-5,-38.5 0.1244,-54.1045 0.2763,-34.6767 0.1518,19.4278 0.1517,50.9278 -2e-4,70 -0.152,19.0722 -0.2762,3.1767 -0.2761,-35.3233 z M 1159.5,1410 c 0.9955,-1.1 2.035,-2 2.31,-2 0.275,0 -0.3145,0.9 -1.31,2 -0.9955,1.1 -2.035,2 -2.31,2 -0.275,0 0.3145,-0.9 1.31,-2 z m 48.4462,-7.75 -3.4462,-3.75 3.75,3.4462 c 3.4904,3.2076 4.2098,4.0538 3.4462,4.0538 -0.1671,0 -1.8546,-1.6875 -3.75,-3.75 z m 52.8663,-3.9331 c 0.7219,-0.2889 1.5844,-0.2534 1.9167,0.079 0.3323,0.3323 -0.2584,0.5687 -1.3125,0.5253 -1.165,-0.048 -1.4019,-0.285 -0.6042,-0.6042 z m 4.9375,0.021 c 0.6875,-0.2774 1.8125,-0.2774 2.5,0 0.6875,0.2774 0.125,0.5044 -1.25,0.5044 -1.375,0 -1.9375,-0.227 -1.25,-0.5044 z m -382.56402,-6.0857 c 9.17729,-0.1649 24.47729,-0.1652 34,-7e-4 9.52271,0.1645 2.01402,0.2994 -16.68598,0.2998 -18.7,4e-4 -26.49131,-0.1342 -17.31402,-0.2991 z m 346.73832,-8.002 -2.4243,-2.75 2.75,2.4243 c 1.5125,1.3334 2.75,2.5709 2.75,2.75 0,0.7843 -0.8098,0.146 -3.0757,-2.4243 z m -88.7664,-4.25 c 0,-1.375 0.227,-1.9375 0.5044,-1.25 0.2774,0.6875 0.2774,1.8125 0,2.5 -0.2774,0.6875 -0.5044,0.125 -0.5044,-1.25 z m 169.921,-24.5833 c 0.048,-1.165 0.285,-1.4019 0.6042,-0.6042 0.2889,0.7219 0.2534,1.5844 -0.079,1.9167 -0.3323,0.3323 -0.5687,-0.2584 -0.5253,-1.3125 z M 1187.286,1351.5 c 0.01,-2.75 0.2017,-3.7563 0.4316,-2.2363 0.2298,1.5201 0.2237,3.7701 -0.014,5 -0.2373,1.23 -0.4254,-0.014 -0.4179,-2.7637 z m 123.7929,-4.0833 c 0.048,-1.165 0.285,-1.4019 0.6042,-0.6042 0.2889,0.7219 0.2534,1.5844 -0.079,1.9167 -0.3323,0.3323 -0.5687,-0.2584 -0.5253,-1.3125 z M 1230,1318.5 c 1.2917,-1.375 2.5736,-2.5 2.8486,-2.5 0.275,0 -0.5569,1.125 -1.8486,2.5 -1.2917,1.375 -2.5736,2.5 -2.8486,2.5 -0.275,0 0.5569,-1.125 1.8486,-2.5 z m -64.8051,-2 c 0.02,-1.65 0.2445,-2.2039 0.4981,-1.231 0.2535,0.973 0.2369,2.323 -0.037,3 -0.2739,0.6771 -0.4813,-0.119 -0.461,-1.769 z M 1204,1304.6224 c 0,-0.2076 0.7875,-0.9951 1.75,-1.75 1.5861,-1.2438 1.6214,-1.2085 0.3776,0.3776 -1.3064,1.6657 -2.1276,2.1955 -2.1276,1.3724 z m 58.75,-0.2847 c 0.6875,-0.2774 1.8125,-0.2774 2.5,0 0.6875,0.2774 0.125,0.5044 -1.25,0.5044 -1.375,0 -1.9375,-0.227 -1.25,-0.5044 z m -5.9375,-26.0208 c 0.7219,-0.2889 1.5844,-0.2534 1.9167,0.079 0.3323,0.3323 -0.2584,0.5687 -1.3125,0.5253 -1.165,-0.048 -1.4019,-0.285 -0.6042,-0.6042 z m 13,0 c 0.7219,-0.2889 1.5844,-0.2534 1.9167,0.079 0.3323,0.3323 -0.2584,0.5687 -1.3125,0.5253 -1.165,-0.048 -1.4019,-0.285 -0.6042,-0.6042 z m -326,-29 c 0.72187,-0.2889 1.58438,-0.2534 1.91667,0.079 0.33229,0.3323 -0.25834,0.5687 -1.3125,0.5253 -1.16495,-0.048 -1.4019,-0.285 -0.60417,-0.6042 z M 1240.4396,1218.5 c 5e-4,-15.4 0.1393,-21.5603 0.3085,-13.6895 0.1691,7.8708 0.1687,20.4708 -9e-4,28 -0.1697,7.5292 -0.3081,1.0895 -0.3076,-14.3105 z m 69,0 c 5e-4,-15.4 0.1393,-21.5603 0.3085,-13.6895 0.1691,7.8708 0.1687,20.4708 -9e-4,28 -0.1697,7.5292 -0.3081,1.0895 -0.3076,-14.3105 z M 979,1235.6871 c 0,-0.1721 1.4625,-1.6346 3.25,-3.25 l 3.25,-2.9371 -2.93709,3.25 C 979.82513,1235.7795 979,1236.4597 979,1235.6871 Z M 566.40499,1227.75 564.5,1225.5 l 2.25,1.905 c 1.2375,1.0477 2.25,2.0602 2.25,2.25 0,0.8002 -0.80479,0.2094 -2.59501,-1.905 z M 931.75,1223.3377 c 0.6875,-0.2774 1.8125,-0.2774 2.5,0 0.6875,0.2774 0.125,0.5044 -1.25,0.5044 -1.375,0 -1.9375,-0.227 -1.25,-0.5044 z m 5,0 c 0.6875,-0.2774 1.8125,-0.2774 2.5,0 0.6875,0.2774 0.125,0.5044 -1.25,0.5044 -1.375,0 -1.9375,-0.227 -1.25,-0.5044 z m 170,0 c 0.6875,-0.2774 1.8125,-0.2774 2.5,0 0.6875,0.2774 0.125,0.5044 -1.25,0.5044 -1.375,0 -1.9375,-0.227 -1.25,-0.5044 z m 6,0 c 0.6875,-0.2774 1.8125,-0.2774 2.5,0 0.6875,0.2774 0.125,0.5044 -1.25,0.5044 -1.375,0 -1.9375,-0.227 -1.25,-0.5044 z M 675.87244,1221.25 c -1.24387,-1.5861 -1.2085,-1.6214 0.37756,-0.3776 1.66575,1.3064 2.19548,2.1276 1.37244,2.1276 -0.20765,0 -0.99515,-0.7875 -1.75,-1.75 z m 77.87756,-3.9984 c 9.4875,-0.1644 25.0125,-0.1644 34.5,0 9.4875,0.1644 1.725,0.2988 -17.25,0.2988 -18.975,0 -26.7375,-0.1344 -17.25,-0.2988 z M 959,1215.6224 c 0,-0.2076 0.7875,-0.9951 1.75,-1.75 1.58606,-1.2438 1.62143,-1.2085 0.37756,0.3776 -1.30637,1.6657 -2.12756,2.1955 -2.12756,1.3724 z m 180.9978,-18.9202 0.4977,-19.2022 0.2755,18.4268 c 0.1515,10.1347 -0.072,18.7757 -0.4978,19.2022 -0.4252,0.4265 -0.5492,-7.8656 -0.2754,-18.4268 z M 666.87244,1211.25 c -1.24387,-1.5861 -1.2085,-1.6214 0.37756,-0.3776 1.66575,1.3064 2.19548,2.1276 1.37244,2.1276 -0.20765,0 -0.99515,-0.7875 -1.75,-1.75 z M 998.45974,1150 c 0,-24.475 0.13017,-34.4875 0.28926,-22.25 0.15909,12.2375 0.15909,32.2625 0,44.5 -0.15909,12.2375 -0.28926,2.225 -0.28926,-22.25 z m -98.30185,41 c 0,-1.375 0.22698,-1.9375 0.50439,-1.25 0.27741,0.6875 0.27741,1.8125 0,2.5 -0.27741,0.6875 -0.50439,0.125 -0.50439,-1.25 z m -28.7003,-42.5 c 2.5e-4,-23.1 0.13143,-32.4072 0.29152,-20.6827 0.16008,11.7245 0.15988,30.6245 -4.5e-4,42 -0.16034,11.3755 -0.29131,1.7827 -0.29107,-21.3173 z m 368.98551,-13 c -5e-4,-16.5 0.1365,-23.3903 0.3044,-15.3118 0.1679,8.0785 0.1683,21.5785 8e-4,30 -0.1674,8.4215 -0.3048,1.8118 -0.3052,-14.6882 z m 68.9991,0.5 c 0,-16.225 0.1376,-22.8625 0.3057,-14.75 0.168,8.1125 0.168,21.3875 0,29.5 -0.1681,8.1125 -0.3057,1.475 -0.3057,-14.75 z m -689.17845,-6.7176 c 1.52006,-0.2298 3.77006,-0.2237 5,0.014 1.22994,0.2373 -0.0137,0.4254 -2.76375,0.4179 -2.75,-0.01 -3.75631,-0.2017 -2.23625,-0.4316 z m 487.98625,0 c 1.5125,-0.2291 3.9875,-0.2291 5.5,0 1.5125,0.2292 0.275,0.4166 -2.75,0.4166 -3.025,0 -4.2625,-0.1874 -2.75,-0.4166 z m -493.4375,-25.9668 c 0.72187,-0.2889 1.58438,-0.2534 1.91667,0.079 0.33229,0.3323 -0.25834,0.5687 -1.3125,0.5253 -1.16495,-0.048 -1.4019,-0.285 -0.60417,-0.6042 z m 13,0 c 0.72187,-0.2889 1.58438,-0.2534 1.91667,0.079 0.33229,0.3323 -0.25834,0.5687 -1.3125,0.5253 -1.16495,-0.048 -1.4019,-0.285 -0.60417,-0.6042 z m 474.9375,0.021 c 0.6875,-0.2774 1.8125,-0.2774 2.5,0 0.6875,0.2774 0.125,0.5044 -1.25,0.5044 -1.375,0 -1.9375,-0.227 -1.25,-0.5044 z m 13.0625,-0.021 c 0.7219,-0.2889 1.5844,-0.2534 1.9167,0.079 0.3323,0.3323 -0.2584,0.5687 -1.3125,0.5253 -1.165,-0.048 -1.4019,-0.285 -0.6042,-0.6042 z"
       id="path4518"
       inkscape:connector-curvature="0"
       sodipodi:nodetypes="sccssssssccsssssscccsccccccsssssssscccscsssscccccccccccccccssssscccccsccssssscccccccccccccccsccssccsscccscccscssssssssssssssssccscsszssccscccccccscsssssssssssscsccsccscccccccscccccccccccssssccccc" />
    <path
       style="fill:#000000"
       d="M 247,1024 V 316 H 332.5 418 V 224.5 133 h 708 708 v 708 708 h -85.5 -85.5 v 91.5 91.5 H 955 247 Z m 1362,589.5 V 1549 H 1013.5 418 V 959.5 370 H 359.5 301 v 654 654 h 654 654 z m 0,-681 V 370 H 1040.5 472 V 932.5 1495 h 568.5 568.5 z m -359.5,490.9968 c -15.7141,-2.9694 -27.986,-9.1646 -39.138,-19.7579 -8.7858,-8.3457 -15.2128,-18.2571 -18.9596,-29.2389 -3.8937,-11.4124 -4.5344,-28.5637 -1.5158,-40.5769 6.6147,-26.3243 26.2571,-45.7127 53.7352,-53.0402 11.0405,-2.9441 29.6745,-2.9431 40.8782,0 32.341,8.5022 53.7191,33.4868 56.1432,65.6148 2.3899,31.6744 -16.176,60.5743 -46.7796,72.8177 -13.0208,5.2091 -30.299,6.8367 -44.3636,4.1791 z m 24.7698,-25.9661 c 23.9978,-5.0852 40.6734,-28.8106 36.9875,-52.6241 -4.9396,-31.9124 -38.9706,-49.5675 -68.0723,-35.3155 -9.8215,4.8099 -17.3193,12.3912 -22.0485,22.2942 -3.5596,7.4537 -3.6365,7.8695 -3.6365,19.6666 0,11.9594 0.029,12.1113 3.8368,19.815 6.6337,13.4224 18.7592,23.0412 32.9259,26.119 8.1531,1.7713 11.8207,1.7795 20.0071,0.045 z M 557.2,1422.8 c -1.73594,-1.7359 -1.73594,-140.8641 0,-142.6 0.8011,-0.8011 5.22222,-1.2 13.3,-1.2 8.07778,0 12.4989,0.3989 13.3,1.2 0.91036,0.9104 1.2,18.01 1.2,70.845 0,66.201 -0.0904,69.7269 -1.82874,71.3 -1.47795,1.3375 -4.0292,1.655 -13.3,1.655 -7.58876,0 -11.87741,-0.4061 -12.67126,-1.2 z m 66,0 c -1.73594,-1.7359 -1.73594,-140.8641 0,-142.6 0.80214,-0.8021 5.2436,-1.2 13.39619,-1.2 h 12.19618 l 35.35382,47.25 35.35381,47.25 0.2602,-45.9098 c 0.18061,-31.8691 0.60035,-46.3197 1.37244,-47.25 1.48545,-1.7899 23.8953,-1.9123 25.66736,-0.1402 1.73594,1.7359 1.73594,140.8641 0,142.6 -0.8019,0.8019 -5.23859,1.2 -13.37368,1.2 h -12.17367 l -34.87633,-46.9987 c -19.18197,-25.8492 -35.21382,-46.9992 -35.62632,-47 -0.4125,-7e-4 -0.75,20.6087 -0.75,45.7987 0,34.2889 -0.3016,46.1016 -1.2,47 -1.65487,1.6549 -23.94513,1.6549 -25.6,0 z m 203.02744,0.027 c -0.67509,-0.6751 -1.22424,-1.6999 -1.22034,-2.2774 0.004,-0.5775 13.91095,-32.55 30.90454,-71.05 l 30.89743,-70 13.84546,-0.2732 13.84547,-0.2732 30.9064,70.6635 c 23.8658,54.566 30.67548,71.0302 29.89274,72.2732 -0.8347,1.3255 -3.3931,1.6586 -14.49098,1.8868 l -13.47731,0.2772 -6.82488,-16.0403 -6.82487,-16.0402 -33.59055,0.2631 -33.59055,0.2631 -6.60885,15.5 -6.60885,15.5 -12.91371,0.2774 c -9.19413,0.1976 -13.26725,-0.076 -14.14115,-0.95 z M 922,1365.2888 c 0,-1.2912 -21.42097,-51.2892 -21.96625,-51.2707 -0.42288,0.014 -18.93792,43.0775 -21.59724,50.2319 -0.60719,1.6335 0.82109,1.75 21.4565,1.75 12.15885,0 22.10699,-0.32 22.10699,-0.7112 z m 132.25,57.5758 c -1.7811,-1.802 -1.8299,-140.8847 -0.05,-142.6646 1.9865,-1.9865 67.6756,-1.6558 77.5922,0.3907 15.5842,3.2161 26.8344,11.4499 31.054,22.7278 2.8696,7.6696 2.9199,18.5588 0.1205,26.0411 -2.1863,5.8432 -8.0992,13.303 -12.3462,15.5759 -1.4413,0.7713 -2.6205,1.6647 -2.6205,1.9852 0,0.3205 2.0528,1.6717 4.5617,3.0027 16.6072,8.8101 23.1505,32.8267 13.9212,51.0964 -2.9644,5.868 -11.1711,13.4919 -17.7648,16.503 -12.1878,5.5658 -14.3694,5.8117 -55.2181,6.2234 -29.7195,0.2996 -38.2724,0.1075 -39.25,-0.8816 z m 75.1582,-26.9228 c 12.3519,-4.3441 16.183,-18.8255 7.0919,-26.8075 -5.8988,-5.1793 -11.2983,-6.1343 -34.6816,-6.1343 H 1081 v 17.5832 17.5831 l 22.25,-0.425 c 15.3273,-0.2928 23.466,-0.8527 26.1582,-1.7995 z m -1.619,-61.7321 c 6.2456,-3.335 8.4107,-7.3167 7.9416,-14.6046 -0.3386,-5.261 -0.7645,-6.2479 -3.9607,-9.1769 -1.9697,-1.8051 -5.3112,-3.7624 -7.4257,-4.3495 -2.1241,-0.5899 -12.6819,-1.07 -23.5944,-1.0731 L 1081,1305 v 16.0711 16.0712 l 21.25,-0.3212 c 19.9006,-0.3007 21.5224,-0.4665 25.5392,-2.6114 z m 225.1997,87.7696 c -0.5947,-1.1113 -0.7461,-2.5738 -0.3364,-3.25 0.4098,-0.6761 11.2991,-16.0793 24.1985,-34.2293 12.8994,-18.15 23.6094,-33.675 23.8,-34.5 0.1906,-0.825 -9.8118,-16.072 -22.2275,-33.8823 -18.4801,-26.5098 -22.4649,-32.8165 -21.973,-34.7766 l 0.6009,-2.3943 14.6379,0.2766 14.6379,0.2766 15.8689,22.5 c 8.7279,12.375 16.1918,22.5996 16.5864,22.7214 0.3946,0.1217 7.93,-10.0033 16.7452,-22.5 l 16.0277,-22.7214 14.673,-0.2765 c 13.5873,-0.2559 14.7487,-0.1348 15.6975,1.638 0.8667,1.6194 -2.3047,6.669 -20.5854,32.7764 -11.8855,16.9742 -22.2287,31.8023 -22.9849,32.9514 -1.2776,1.9413 0.3834,4.6013 23.4574,37.5639 21.6528,30.9325 24.7074,35.7545 23.8568,37.6607 -0.9387,2.1039 -1.5249,2.1861 -15.5873,2.1861 h -14.6119 l -18.3336,-25.5538 -18.3335,-25.5538 -18.1149,25.5538 -18.1148,25.5538 h -14.2517 c -13.2769,0 -14.3257,-0.1382 -15.3332,-2.0207 z M 607.3602,1248.5237 c -16.52726,-2.9996 -27.73699,-8.8371 -39.3602,-20.4969 -9.45046,-9.4803 -13.91407,-16.3279 -17.6548,-27.0844 -8.85301,-25.4568 -3.35601,-53.2606 14.42515,-72.9623 14.36942,-15.9215 33.68911,-24.1647 56.72965,-24.205 20.96107,-0.037 38.89401,6.6482 53.68728,20.0131 l 3.76542,3.4018 -7.65967,9.405 c -4.60919,5.6594 -8.38879,9.405 -9.49048,9.405 -1.00694,0 -4.41195,-2.1034 -7.56668,-4.6743 -10.47059,-8.5328 -24.67289,-13.1865 -36.2184,-11.8679 -33.45882,3.8216 -52.63949,37.965 -37.89887,67.4636 9.5166,19.0444 30.99517,29.3468 52.08218,24.9816 7.07284,-1.4641 18.30834,-6.9053 23.54074,-11.4004 2.4471,-2.1024 5.05429,-3.5083 6.1627,-3.3233 1.05666,0.1764 5.35136,4.1457 9.5438,8.8207 l 7.6226,8.5 -4.57218,4.1958 c -18.01431,16.5313 -43.62597,24.0952 -67.13824,19.8279 z m 312.1398,-0.06 c -23.38542,-4.371 -39.76866,-19.554 -45.56814,-42.2297 C 872.15977,1199.3048 872,1194.8643 872,1152.54 c 0,-34.5533 0.30134,-46.4413 1.2,-47.34 1.65487,-1.6549 23.94513,-1.6549 25.6,0 0.89534,0.8953 1.2,11.8925 1.2,43.3163 0,26.1103 0.41405,44.3562 1.08946,48.0098 2.75896,14.9246 11.7062,23.7168 26.94745,26.4806 17.45288,3.1648 33.36963,-4.4664 39.14548,-18.768 2.29015,-5.6707 2.32112,-6.2857 2.61387,-51.9046 0.23848,-37.1641 0.55839,-46.3835 1.6406,-47.2817 0.87286,-0.7244 5.67911,-1.0169 13.70375,-0.8341 L 997.5,1104.5 l 0.25982,47.3018 c 0.21746,39.5879 0.0103,48.3778 -1.27029,53.8996 -4.88233,21.0522 -19.97227,36.2711 -41.4437,41.7978 -9.11659,2.3467 -25.73729,2.7975 -35.54583,0.9641 z m 176.6639,0.4844 c -16.0737,-2.8798 -30.7861,-10.411 -41.7434,-21.3682 -34.0195,-34.0196 -26.1761,-90.5572 15.8085,-113.9526 18.3938,-10.2497 40.9101,-12.7803 63.3257,-7.1172 10.9685,2.7711 33.4453,15.2779 33.4453,18.61 0,2.0727 -13.5514,18.7362 -15.5,19.0595 -1.1302,0.1875 -3.957,-1.1506 -6.5,-3.077 -10.6612,-8.0762 -26.1623,-12.7837 -38.2773,-11.6243 -13.3679,1.2793 -23.3242,6.084 -31.9792,15.4324 -26.9941,29.1569 -8.4498,74.7428 31.9792,78.6118 8.3772,0.8017 19.0085,-1.2719 27.9332,-5.4483 l 6.3441,-2.9687 v -18.8526 c 0,-13.3297 0.3515,-19.204 1.2,-20.0525 0.7749,-0.7749 4.7778,-1.2 11.3,-1.2 6.5222,0 10.5251,0.4251 11.3,1.2 0.8734,0.8734 1.2,8.469 1.2,27.9104 v 26.7103 l -6.3116,3.9862 c -8.2766,5.2271 -19.271,9.8591 -29.1884,12.2972 -9.3051,2.2876 -26.6575,3.2193 -34.3361,1.8436 z m -398.93646,-1.1203 c -0.67509,-0.6751 -1.22744,-1.741 -1.22744,-2.3686 0,-0.6277 13.89043,-32.6002 30.86762,-71.05 l 30.86763,-69.9088 13.88237,-0.2676 13.88238,-0.2675 30.77736,70.5322 c 25.6182,58.7089 30.59924,70.8649 29.71481,72.5175 -0.97863,1.8286 -2.11883,1.9854 -14.43845,1.9854 h -13.37591 l -6.7396,-16 -6.7396,-16 h -33.60414 -33.60413 l -6.63614,15.75 -6.63614,15.75 -12.88159,0.2774 c -9.16881,0.1975 -13.23537,-0.076 -14.10903,-0.95 z m 95.34987,-58.5774 c -2.29095,-6.2971 -21.17477,-50.2476 -21.58989,-50.2487 -0.42153,0 -19.49116,44.4096 -21.57643,50.2487 -0.58315,1.6329 0.86143,1.75 21.58901,1.75 20.73204,0 22.1715,-0.1167 21.57731,-1.75 z M 1213.2,1247.8 c -1.9038,-1.9038 -1.7178,-141.1253 0.1906,-142.7092 0.9292,-0.7712 5.4917,-1.0607 13.75,-0.8725 l 12.3594,0.2817 0.2647,30.25 0.2646,30.25 H 1275.0147 1310 v -29.3 c 0,-21.4556 0.3213,-29.6213 1.2,-30.5 0.7954,-0.7954 5.1111,-1.2 12.8,-1.2 7.6889,0 12.0046,0.4046 12.8,1.2 1.7359,1.7359 1.7359,140.8641 0,142.6 -0.7954,0.7954 -5.1111,1.2 -12.8,1.2 -7.6889,0 -12.0046,-0.4046 -12.8,-1.2 -0.8758,-0.8758 -1.2,-8.7111 -1.2,-29 V 1191 h -35 -35 v 27.8 c 0,20.2889 -0.3242,28.1242 -1.2,29 -1.6549,1.6549 -23.9451,1.6549 -25.6,0 z m 203,0 c -0.9059,-0.9059 -1.2,-15.4889 -1.2,-59.5 V 1130 h -20.8 c -14.8444,0 -21.1436,-0.3436 -22,-1.2 -0.7824,-0.7824 -1.2,-4.8889 -1.2,-11.8 0,-6.9111 0.4176,-11.0176 1.2,-11.8 0.9048,-0.9048 15,-1.2 57.3,-1.2 42.3,0 56.3952,0.2952 57.3,1.2 0.7824,0.7824 1.2,4.8889 1.2,11.8 0,6.9111 -0.4176,11.0176 -1.2,11.8 -0.8564,0.8564 -7.1556,1.2 -22,1.2 H 1444 v 58.3 c 0,44.0111 -0.2941,58.5941 -1.2,59.5 -1.6589,1.6589 -24.9411,1.6589 -26.6,0 z M 1780,841 V 187 H 1126 472 V 251.5 316 H 1067.5 1663 V 905.5 1495 h 58.5 58.5 z"
       id="path4516"
       inkscape:connector-curvature="0"
       sodipodi:nodetypes="cccccccccccccccccccccccccccccccccccccccccccccscccccscsccccccscscscccscccscccscccsccccscccscccccccccccsccsscsccccscccccccscccccccccscccccccsscccccscsccsccccscccccscccccccccsccscccccccccsccscccscccsscccccssscssccccssssscccccsscccscsccccccccccccscssccccccsssssssscccssssscsssssssszcsssccccccccccccc"
       inkscape:export-xdpi="96"
       inkscape:export-ydpi="96" />
  </g>
</svg>
